<mxfile host="app.diagrams.net" modified="2024-03-13T16:35:51.260Z" agent="Mozilla/5.0 (Macintosh; Intel Mac OS X 10.15; rv:124.0) Gecko/20100101 Firefox/124.0" etag="-hAjahdvulF37kFRysqR" version="24.0.5" type="github">
  <diagram name="Page-1" id="2YBvvXClWsGukQMizWep">
    <mxGraphModel dx="1434" dy="822" grid="1" gridSize="10" guides="1" tooltips="1" connect="1" arrows="1" fold="1" page="1" pageScale="1" pageWidth="850" pageHeight="1100" background="#ffffff" math="0" shadow="0">
      <root>
        <mxCell id="0" />
        <mxCell id="1" parent="0" />
        <mxCell id="Decw9z4XVH7Oto7DdXiw-26" value="" style="edgeStyle=orthogonalEdgeStyle;rounded=0;orthogonalLoop=1;jettySize=auto;html=1;" edge="1" parent="1" source="Decw9z4XVH7Oto7DdXiw-1" target="Decw9z4XVH7Oto7DdXiw-25">
          <mxGeometry relative="1" as="geometry">
            <Array as="points">
              <mxPoint x="255" y="170" />
              <mxPoint x="400" y="170" />
            </Array>
          </mxGeometry>
        </mxCell>
        <mxCell id="Decw9z4XVH7Oto7DdXiw-27" value="Orders coffee online" style="edgeLabel;html=1;align=center;verticalAlign=middle;resizable=0;points=[];" vertex="1" connectable="0" parent="Decw9z4XVH7Oto7DdXiw-26">
          <mxGeometry x="0.0113" relative="1" as="geometry">
            <mxPoint as="offset" />
          </mxGeometry>
        </mxCell>
        <mxCell id="Decw9z4XVH7Oto7DdXiw-1" value="Web UI" style="shape=umlActor;verticalLabelPosition=bottom;verticalAlign=top;html=1;outlineConnect=0;" vertex="1" parent="1">
          <mxGeometry x="240" y="50" width="30" height="60" as="geometry" />
        </mxCell>
        <mxCell id="Decw9z4XVH7Oto7DdXiw-20" value="" style="edgeStyle=orthogonalEdgeStyle;rounded=0;orthogonalLoop=1;jettySize=auto;html=1;" edge="1" parent="1" source="Decw9z4XVH7Oto7DdXiw-2" target="Decw9z4XVH7Oto7DdXiw-19">
          <mxGeometry relative="1" as="geometry">
            <Array as="points">
              <mxPoint x="655" y="150" />
              <mxPoint x="500" y="150" />
            </Array>
          </mxGeometry>
        </mxCell>
        <mxCell id="Decw9z4XVH7Oto7DdXiw-2" value="Coffe to go" style="shape=umlActor;verticalLabelPosition=bottom;verticalAlign=top;html=1;outlineConnect=0;" vertex="1" parent="1">
          <mxGeometry x="640" y="50" width="30" height="60" as="geometry" />
        </mxCell>
        <mxCell id="Decw9z4XVH7Oto7DdXiw-34" value="" style="edgeStyle=orthogonalEdgeStyle;rounded=0;orthogonalLoop=1;jettySize=auto;html=1;" edge="1" parent="1" source="Decw9z4XVH7Oto7DdXiw-8" target="Decw9z4XVH7Oto7DdXiw-33">
          <mxGeometry relative="1" as="geometry" />
        </mxCell>
        <mxCell id="Decw9z4XVH7Oto7DdXiw-44" value="" style="edgeStyle=orthogonalEdgeStyle;rounded=0;orthogonalLoop=1;jettySize=auto;html=1;" edge="1" parent="1" source="Decw9z4XVH7Oto7DdXiw-8" target="Decw9z4XVH7Oto7DdXiw-43">
          <mxGeometry relative="1" as="geometry" />
        </mxCell>
        <mxCell id="Decw9z4XVH7Oto7DdXiw-8" value="" style="shape=hexagon;perimeter=hexagonPerimeter2;whiteSpace=wrap;html=1;fixedSize=1;fillColor=#ffe6cc;strokeColor=#d79b00;" vertex="1" parent="1">
          <mxGeometry x="350" y="230" width="210" height="140" as="geometry" />
        </mxCell>
        <mxCell id="Decw9z4XVH7Oto7DdXiw-9" value="" style="endArrow=none;dashed=1;html=1;dashPattern=1 3;strokeWidth=2;rounded=0;" edge="1" parent="1">
          <mxGeometry width="50" height="50" relative="1" as="geometry">
            <mxPoint x="70" y="190" as="sourcePoint" />
            <mxPoint x="780" y="190" as="targetPoint" />
          </mxGeometry>
        </mxCell>
        <mxCell id="Decw9z4XVH7Oto7DdXiw-10" value="" style="endArrow=none;dashed=1;html=1;dashPattern=1 3;strokeWidth=2;rounded=0;" edge="1" parent="1">
          <mxGeometry width="50" height="50" relative="1" as="geometry">
            <mxPoint x="70" y="690" as="sourcePoint" />
            <mxPoint x="70" y="190" as="targetPoint" />
          </mxGeometry>
        </mxCell>
        <mxCell id="Decw9z4XVH7Oto7DdXiw-11" value="" style="endArrow=none;dashed=1;html=1;dashPattern=1 3;strokeWidth=2;rounded=0;" edge="1" parent="1">
          <mxGeometry width="50" height="50" relative="1" as="geometry">
            <mxPoint x="70" y="700" as="sourcePoint" />
            <mxPoint x="790" y="700" as="targetPoint" />
          </mxGeometry>
        </mxCell>
        <mxCell id="Decw9z4XVH7Oto7DdXiw-12" value="" style="endArrow=none;dashed=1;html=1;rounded=0;" edge="1" parent="1">
          <mxGeometry width="50" height="50" relative="1" as="geometry">
            <mxPoint x="780" y="700" as="sourcePoint" />
            <mxPoint x="780" y="190" as="targetPoint" />
          </mxGeometry>
        </mxCell>
        <mxCell id="Decw9z4XVH7Oto7DdXiw-42" value="" style="edgeStyle=orthogonalEdgeStyle;rounded=0;orthogonalLoop=1;jettySize=auto;html=1;" edge="1" parent="1" source="Decw9z4XVH7Oto7DdXiw-13" target="Decw9z4XVH7Oto7DdXiw-31">
          <mxGeometry relative="1" as="geometry" />
        </mxCell>
        <mxCell id="Decw9z4XVH7Oto7DdXiw-13" value="&lt;h1 align=&quot;center&quot; style=&quot;margin-top: 0px;&quot;&gt;API Gateway&lt;br&gt;&lt;/h1&gt;&lt;p align=&quot;center&quot;&gt;[Container, NodeJS, Express]&lt;/p&gt;&lt;p align=&quot;center&quot;&gt;REST API &amp;amp; load balancer that handles the orders, and redirects to the available instance &lt;br&gt;&lt;/p&gt;" style="text;html=1;whiteSpace=wrap;overflow=hidden;rounded=0;" vertex="1" parent="1">
          <mxGeometry x="365" y="240" width="180" height="120" as="geometry" />
        </mxCell>
        <mxCell id="Decw9z4XVH7Oto7DdXiw-19" value="" style="shape=waypoint;sketch=0;size=6;pointerEvents=1;points=[];fillColor=default;resizable=0;rotatable=0;perimeter=centerPerimeter;snapToPoint=1;verticalAlign=top;" vertex="1" parent="1">
          <mxGeometry x="490" y="220" width="20" height="20" as="geometry" />
        </mxCell>
        <mxCell id="Decw9z4XVH7Oto7DdXiw-22" value="Orders coffee to go" style="text;html=1;align=center;verticalAlign=middle;resizable=0;points=[];autosize=1;strokeColor=none;fillColor=none;" vertex="1" parent="1">
          <mxGeometry x="485" y="128" width="130" height="30" as="geometry" />
        </mxCell>
        <mxCell id="Decw9z4XVH7Oto7DdXiw-25" value="" style="shape=waypoint;sketch=0;size=6;pointerEvents=1;points=[];fillColor=default;resizable=0;rotatable=0;perimeter=centerPerimeter;snapToPoint=1;verticalAlign=top;" vertex="1" parent="1">
          <mxGeometry x="390" y="220" width="20" height="20" as="geometry" />
        </mxCell>
        <mxCell id="Decw9z4XVH7Oto7DdXiw-37" value="" style="edgeStyle=orthogonalEdgeStyle;rounded=0;orthogonalLoop=1;jettySize=auto;html=1;" edge="1" parent="1" source="Decw9z4XVH7Oto7DdXiw-30" target="Decw9z4XVH7Oto7DdXiw-36">
          <mxGeometry relative="1" as="geometry">
            <Array as="points">
              <mxPoint x="290" y="610" />
            </Array>
          </mxGeometry>
        </mxCell>
        <mxCell id="Decw9z4XVH7Oto7DdXiw-30" value="REST API" style="shape=hexagon;perimeter=hexagonPerimeter2;whiteSpace=wrap;html=1;fixedSize=1;fillColor=#ffe6cc;strokeColor=#d79b00;" vertex="1" parent="1">
          <mxGeometry x="180" y="420" width="120" height="80" as="geometry" />
        </mxCell>
        <mxCell id="Decw9z4XVH7Oto7DdXiw-38" value="" style="edgeStyle=orthogonalEdgeStyle;rounded=0;orthogonalLoop=1;jettySize=auto;html=1;" edge="1" parent="1" source="Decw9z4XVH7Oto7DdXiw-31" target="Decw9z4XVH7Oto7DdXiw-36">
          <mxGeometry relative="1" as="geometry">
            <Array as="points">
              <mxPoint x="455" y="610" />
            </Array>
          </mxGeometry>
        </mxCell>
        <mxCell id="Decw9z4XVH7Oto7DdXiw-31" value="REST API" style="shape=hexagon;perimeter=hexagonPerimeter2;whiteSpace=wrap;html=1;fixedSize=1;fillColor=#ffe6cc;strokeColor=#d79b00;" vertex="1" parent="1">
          <mxGeometry x="395" y="430" width="120" height="80" as="geometry" />
        </mxCell>
        <mxCell id="Decw9z4XVH7Oto7DdXiw-41" value="" style="edgeStyle=orthogonalEdgeStyle;rounded=0;orthogonalLoop=1;jettySize=auto;html=1;" edge="1" parent="1" source="Decw9z4XVH7Oto7DdXiw-32" target="Decw9z4XVH7Oto7DdXiw-40">
          <mxGeometry relative="1" as="geometry">
            <Array as="points">
              <mxPoint x="660" y="620" />
            </Array>
          </mxGeometry>
        </mxCell>
        <mxCell id="Decw9z4XVH7Oto7DdXiw-32" value="REST API" style="shape=hexagon;perimeter=hexagonPerimeter2;whiteSpace=wrap;html=1;fixedSize=1;fillColor=#ffe6cc;strokeColor=#d79b00;" vertex="1" parent="1">
          <mxGeometry x="610" y="430" width="120" height="80" as="geometry" />
        </mxCell>
        <mxCell id="Decw9z4XVH7Oto7DdXiw-33" value="" style="shape=waypoint;sketch=0;size=6;pointerEvents=1;points=[];fillColor=#ffe6cc;resizable=0;rotatable=0;perimeter=centerPerimeter;snapToPoint=1;strokeColor=#d79b00;" vertex="1" parent="1">
          <mxGeometry x="210" y="420" width="20" height="20" as="geometry" />
        </mxCell>
        <mxCell id="Decw9z4XVH7Oto7DdXiw-35" value="" style="shape=datastore;whiteSpace=wrap;html=1;fillColor=#dae8fc;strokeColor=#6c8ebf;" vertex="1" parent="1">
          <mxGeometry x="420" y="590" width="60" height="60" as="geometry" />
        </mxCell>
        <mxCell id="Decw9z4XVH7Oto7DdXiw-36" value="" style="shape=waypoint;sketch=0;size=6;pointerEvents=1;points=[];fillColor=#ffe6cc;resizable=0;rotatable=0;perimeter=centerPerimeter;snapToPoint=1;strokeColor=#d79b00;" vertex="1" parent="1">
          <mxGeometry x="420" y="600" width="20" height="20" as="geometry" />
        </mxCell>
        <mxCell id="Decw9z4XVH7Oto7DdXiw-39" style="edgeStyle=orthogonalEdgeStyle;rounded=0;orthogonalLoop=1;jettySize=auto;html=1;exitX=0.15;exitY=0.05;exitDx=0;exitDy=0;exitPerimeter=0;entryX=0.5;entryY=0;entryDx=0;entryDy=0;" edge="1" parent="1" source="Decw9z4XVH7Oto7DdXiw-35" target="Decw9z4XVH7Oto7DdXiw-35">
          <mxGeometry relative="1" as="geometry" />
        </mxCell>
        <mxCell id="Decw9z4XVH7Oto7DdXiw-40" value="" style="shape=waypoint;sketch=0;size=6;pointerEvents=1;points=[];fillColor=#ffe6cc;resizable=0;rotatable=0;perimeter=centerPerimeter;snapToPoint=1;strokeColor=#d79b00;" vertex="1" parent="1">
          <mxGeometry x="460" y="610" width="20" height="20" as="geometry" />
        </mxCell>
        <mxCell id="Decw9z4XVH7Oto7DdXiw-43" value="" style="shape=waypoint;sketch=0;size=6;pointerEvents=1;points=[];fillColor=#ffe6cc;resizable=0;rotatable=0;perimeter=centerPerimeter;snapToPoint=1;strokeColor=#d79b00;" vertex="1" parent="1">
          <mxGeometry x="660" y="430" width="20" height="20" as="geometry" />
        </mxCell>
      </root>
    </mxGraphModel>
  </diagram>
</mxfile>
